<?xml version="1.0" encoding="utf-8"?>
<!-- Generator: Adobe Illustrator 16.0.0, SVG Export Plug-In . SVG Version: 6.00 Build 0)  -->
<!DOCTYPE svg PUBLIC "-//W3C//DTD SVG 1.1//EN" "http://www.w3.org/Graphics/SVG/1.1/DTD/svg11.dtd">
<svg version="1.1" id="Layer_1" xmlns="http://www.w3.org/2000/svg" xmlns:xlink="http://www.w3.org/1999/xlink" x="0px" y="0px"
	 width="128px" height="128px" viewBox="0 0 1024 1024" enable-background="new 0 0 1024 1024" xml:space="preserve">
<title>NGS CheckMate</title>
<desc>
Created by Fritz Lekschas (2016). It is composed:
- DNA created by Irene Hoffman (CC BY 3.0 US) - https://thenounproject.com/term/dna/57369/
- King created by Yuri Mazursky (CC BY 3.0 US) - https://thenounproject.com/term/king/224748/
- Queen created by Yuri Mazursky (CC BY 3.0 US) - https://thenounproject.com/term/queen/224753/
</desc>
<path d="M960,0H64C28.654,0,0,28.654,0,64v896c0,35.346,28.654,64,64,64h896c35.347,0,64-28.654,64-64V64
	C1024,28.654,995.347,0,960,0z M619.174,117.865V82.617h17.792V65h35.598v17.617h17.792v35.248h-17.792v42.009l97.901,37.286
	l-5.474,17.624H544.555l-5.475-17.624l97.886-37.286v-42.009H619.174z M627.721,750.543c-7.733-5.713-15.643-12.701-22.088-20.967
	l113.894-0.032c5.776-9.15,9.772-19.613,10.886-31.453l-149.144,0.032c0.987,11.767,5.093,22.263,11.013,31.452h0.191
	c5.092,7.949,11.441,14.942,18.141,20.967h-0.143c3.931,3.5,7.987,6.684,12.016,9.548c0.094,0.048,0.158,0.096,0.254,0.174
	c0.492,0.335,0.971,0.701,1.479,1.052c15.549,10.854,29.519,16.551,30.697,17.043c0.157,0.041,0.301,0.089,0.461,0.144
	c7.83,3.285,13.702,5.855,18.523,8.012c9.469,4.099,22.263,10.552,35.138,20.061c12.395,9.109,22.756,19.492,31.053,30.904
	l-46.549,0.016c-4.614-3.446-9.212-6.438-13.606-8.977c-0.19-0.134-0.414-0.229-0.588-0.349c-0.158-0.095-0.271-0.158-0.414-0.246
	c-7.479-4.376-15.531-8.22-23.998-11.339c-14.769-5.441-28.55-12.984-39.228-19.637c0.096-0.047,0.191-0.112,0.303-0.175
	c-29.359-18.676-66.091-52.864-64.181-105.954c1.369-37.811,20.036-69.829,53.646-92.999c1.416-0.986,2.833-1.909,4.265-2.832
	c8.802,5.41,20.402,11.808,33.356,17.187c-6.956,3.135-15.357,7.543-23.713,13.446c-0.794,0.542-1.527,1.114-2.291,1.672
	l60.328-0.016c9.723,5.801,18.189,12.539,24.89,19.844l-105.779,0.032c-7.145,9.309-11.824,19.533-14.053,30.585l146.915-0.03
	c-0.208-1.162-0.477-2.308-0.748-3.438c-1.082-5.348-3.057-10.654-5.808-15.866c-1.959-3.9-4.297-7.679-7.003-11.283l-0.206-0.15
	c-5.443-7.099-11.841-13.456-19.813-19.487l-0.254-0.206c-0.749-0.551-1.496-1.146-2.276-1.663
	c-4.408-3.175-8.879-5.897-13.113-8.251c-0.192-0.112-0.383-0.184-0.558-0.296c-0.158-0.055-0.254-0.119-0.397-0.206
	c-7.05-3.906-14.672-7.328-22.66-10.113c-7.957-2.778-15.597-6.167-22.583-9.651c-26.908-12.556-81.11-45.329-78.914-104.406
	c1.256-33.836,18.904-62.576,50.732-83.351c1.352-0.879,2.705-1.719,4.058-2.542c8.339,4.866,19.319,10.623,31.604,15.433
	c-6.619,2.825-14.545,6.788-22.485,12.058c-0.732,0.498-1.432,1.011-2.165,1.516h57.13c9.198,5.172,17.202,11.235,23.552,17.775
	l-100.16,0.009c-6.747,8.362-11.172,17.513-13.271,27.403l139.021-0.008c-0.175-1.026-0.445-2.053-0.684-3.063
	c-1.034-4.782-2.896-9.548-5.474-14.211c-1.862-3.5-4.074-6.874-6.653-10.145l-0.223-0.334c-5.14-6.362-11.061-11.672-18.571-17.084
	l-0.35-0.342c-0.732-0.505-1.4-1.026-2.147-1.523c-4.202-2.829-8.419-5.264-12.429-7.376c-0.16-0.088-0.318-0.179-0.51-0.267
	c-0.128-0.067-0.239-0.131-0.382-0.195c-6.685-3.505-13.877-6.576-21.468-9.087c-13.207-4.369-25.558-10.419-35.137-15.75
	c0.048-0.025,0.078-0.032,0.111-0.048c-14.546-8.318-31.112-20.449-42.745-36.919h38.019c3.469,2.773,7.082,5.299,10.646,7.579
	c0.078,0.04,0.158,0.099,0.206,0.147c0.462,0.278,0.892,0.553,1.319,0.831c13.942,8.748,26.466,13.312,27.532,13.706
	c0.144,0.039,0.27,0.08,0.398,0.119c6.382,1.695,12.364,3.768,17.822,5.94c4.901,1.901,10.678,4.435,16.693,7.65
	c0.493,0.271,1.05,0.549,1.559,0.816c-0.017,0.016-0.017,0.016-0.048,0.016c3.948,2.184,7.957,4.655,11.888,7.448
	c30.602,21.771,48.744,49.929,49.396,83.778c0.652,33.113-15.897,63.006-48.203,86.185c-1.08,0.795-2.195,1.59-3.357,2.331
	c-7.989-4.758-19.717-10.925-33.912-15.906c8.958-4.328,20.051-10.67,30.156-19.168l-69.687,0.009
	c-7.32-5.086-14.814-11.363-20.91-18.747H713.64c5.44-8.194,9.294-17.569,10.342-28.155l-141.091,0.016
	c0.94,10.511,4.823,19.896,10.409,28.139h0.191c4.806,7.114,10.806,13.36,17.139,18.747h-0.112
	c3.708,3.125,7.543,5.967,11.363,8.521c0.062,0.055,0.144,0.11,0.206,0.167c0.478,0.318,0.938,0.612,1.416,0.923
	c14.656,9.746,27.866,14.816,29.011,15.237c0.144,0.048,0.271,0.12,0.414,0.15c14.242,3.988,26.975,10.449,36.22,15.581
	c5.856,3.024,12.174,6.69,18.509,11.1c33.273,23.163,51.416,55.165,52.195,92.982c0.764,37.016-16.677,70.443-50.78,96.422
	c-1.193,0.899-2.386,1.766-3.565,2.617c-8.48-5.338-20.941-12.253-35.916-17.822c9.468-4.847,21.197-11.951,31.843-21.475
	L627.721,750.543z M640.77,822.679c-7.29,3.508-16.088,8.371-24.811,14.848l-46.563,0.008c8.497-11.42,19.017-21.804,31.558-30.93
	c1.512-1.114,3.008-2.163,4.52-3.151C614.783,809.502,627.067,816.68,640.77,822.679z M667.327,381.782
	c8.45-3.879,18.891-9.544,28.47-17.147h37.509c-7.511,10.71-17.76,20.584-30.65,29.358c-1.033,0.727-2.082,1.419-3.166,2.104
	C691.899,391.804,680.76,386.253,667.327,381.782z M751.816,355.811H557.7c-9.69,0-17.633-7.942-17.633-17.657
	c0-9.696,7.942-17.644,17.633-17.644h194.116c9.673,0,17.63,7.941,17.63,17.644C769.446,347.877,761.489,355.811,751.816,355.811z
	 M547.292,223.592h214.945l-27.388,88.11H574.679L547.292,223.592z M795.91,846.312c9.756,0,17.712,7.939,17.712,17.632
	c0,9.691-7.956,17.631-17.712,17.631H528.183c5.37-4.009,8.847-10.414,8.847-17.631c0-7.218-3.477-13.623-8.847-17.632H795.91z
	 M244.569,146.138l12.024,30.9c16.325-7.802,49.786-13.628,90.192-15.212c-7.741-6.464-12.756-16.064-12.756-26.937
	c0-19.496,15.829-35.319,35.321-35.319c19.49,0,35.291,15.824,35.291,35.319c0,10.873-4.985,20.473-12.736,26.937
	c40.406,1.584,73.871,7.403,90.173,15.212l11.973-30.901l33.002,12.793l-21.541,55.387v0.001H233.225l-21.544-55.388
	L244.569,146.138z M342.313,750.451c-7.738-5.716-15.66-12.706-22.099-20.977l113.944-0.03c5.778-9.153,9.775-19.623,10.89-31.467
	l-149.215,0.03c0.994,11.772,5.102,22.272,11.012,31.467h0.195c5.095,7.954,11.456,14.95,18.146,20.977h-0.139
	c3.937,3.503,7.996,6.687,12.023,9.553c0.1,0.047,0.156,0.096,0.255,0.175c0.495,0.335,0.975,0.7,1.473,1.05
	c15.555,10.858,29.541,16.559,30.716,17.052c0.153,0.04,0.309,0.088,0.457,0.144c7.828,3.287,13.719,5.857,18.543,8.015
	c9.472,4.1,22.257,10.556,35.152,20.067c12.395,9.114,22.766,19.504,31.093,30.926l-46.567,0.016
	c-4.617-3.446-9.226-6.439-13.62-8.986c-0.192-0.128-0.407-0.224-0.582-0.334c-0.176-0.095-0.27-0.167-0.414-0.256
	c-7.483-4.378-15.547-8.214-24.008-11.334c-14.786-5.447-28.56-12.992-39.255-19.663c0.107-0.046,0.194-0.112,0.31-0.167
	c-29.37-18.684-66.115-52.897-64.208-106c1.361-37.833,20.043-69.868,53.668-93.038c1.408-0.988,2.837-1.919,4.262-2.834
	c8.804,5.405,20.41,11.805,33.381,17.186c-6.969,3.154-15.366,7.547-23.729,13.462c-0.792,0.533-1.523,1.122-2.293,1.671
	l60.344-0.016c9.743,5.803,18.204,12.546,24.899,19.859l-105.816,0.017c-7.141,9.322-11.816,19.551-14.051,30.601l146.976-0.031
	c-0.215-1.151-0.485-2.291-0.748-3.421c-1.082-5.351-3.056-10.668-5.819-15.874c-1.95-3.907-4.306-7.689-7.012-11.288l-0.2-0.158
	c-5.445-7.102-11.846-13.453-19.812-19.504l-0.256-0.198c-0.748-0.55-1.512-1.137-2.284-1.664c-4.411-3.185-8.883-5.89-13.127-8.246
	c-0.175-0.112-0.366-0.192-0.541-0.303c-0.158-0.063-0.254-0.128-0.398-0.207c-7.06-3.916-14.679-7.324-22.678-10.127
	c-7.956-2.769-15.595-6.16-22.588-9.646c-26.926-12.561-81.139-45.358-78.987-104.464c1.254-33.847,18.918-62.6,50.76-83.383
	c1.353-0.884,2.699-1.719,4.051-2.547c8.347,4.872,19.332,10.627,31.619,15.443c-6.612,2.826-14.544,6.79-22.492,12.06
	c-0.724,0.501-1.433,1.01-2.157,1.52h57.147c9.202,5.174,17.217,11.24,23.571,17.784L311.9,453.368
	c-6.75,8.366-11.177,17.521-13.279,27.416l139.087-0.008c-0.192-1.027-0.461-2.054-0.685-3.064
	c-1.044-4.785-2.898-9.553-5.476-14.218c-1.87-3.501-4.093-6.877-6.664-10.148l-0.215-0.334
	c-5.142-6.368-11.072-11.677-18.595-17.09l-0.349-0.343c-0.717-0.51-1.386-1.027-2.134-1.528c-4.203-2.827-8.423-5.263-12.442-7.38
	c-0.167-0.087-0.319-0.175-0.51-0.263c-0.127-0.072-0.247-0.137-0.383-0.2c-6.694-3.502-13.891-6.575-21.476-9.09
	c-13.215-4.371-25.565-10.42-35.148-15.753c0.048-0.024,0.072-0.031,0.103-0.048c-14.539-8.326-31.121-20.458-42.757-36.936h38.041
	c3.472,2.771,7.074,5.302,10.643,7.579c0.076,0.04,0.156,0.104,0.208,0.151c0.462,0.279,0.888,0.55,1.327,0.828
	c13.937,8.757,26.467,13.317,27.538,13.715c0.143,0.041,0.267,0.08,0.397,0.12c6.392,1.696,12.362,3.765,17.823,5.938
	c4.919,1.903,10.698,4.442,16.717,7.658c0.493,0.271,1.05,0.55,1.552,0.813c-0.016,0.016-0.016,0.016-0.04,0.016
	c3.948,2.189,7.944,4.657,11.892,7.451c30.616,21.779,48.766,49.951,49.418,83.814c0.653,33.129-15.921,63.037-48.241,86.225
	c-1.081,0.796-2.188,1.592-3.342,2.333c-7.992-4.762-19.743-10.931-33.927-15.912c8.956-4.332,20.053-10.676,30.169-19.178
	l-69.721,0.008c-7.326-5.087-14.829-11.368-20.915-18.754l107.743-0.01c5.444-8.199,9.29-17.568,10.356-28.164l-141.158,0.017
	c0.942,10.515,4.832,19.909,10.407,28.156h0.196c4.812,7.116,10.819,13.366,17.151,18.753h-0.124
	c3.717,3.129,7.551,5.971,11.383,8.526c0.056,0.056,0.143,0.112,0.196,0.168c0.481,0.319,0.951,0.612,1.417,0.923
	c14.671,9.752,27.884,14.822,29.026,15.244c0.14,0.049,0.27,0.119,0.423,0.151c14.24,3.989,26.969,10.452,36.227,15.586
	c5.858,3.025,12.186,6.694,18.506,11.106c33.29,23.171,51.447,55.188,52.227,93.022c0.757,37.031-16.685,70.472-50.794,96.463
	c-1.201,0.897-2.404,1.766-3.566,2.618c-8.485-5.343-20.95-12.261-35.933-17.832c9.465-4.847,21.206-11.956,31.858-21.485
	L342.313,750.451z M355.348,822.618c-7.287,3.51-16.084,8.375-24.824,14.854l-46.576,0.008c8.503-11.421,19.033-21.81,31.579-30.942
	c1.51-1.113,3.01-2.164,4.51-3.15C329.361,809.436,341.645,816.616,355.348,822.618z M381.923,381.531
	c8.455-3.884,18.898-9.553,28.482-17.154h37.535c-7.523,10.715-17.776,20.593-30.672,29.365c-1.036,0.733-2.086,1.425-3.169,2.11
	C406.512,391.553,395.369,386.004,381.923,381.531z M466.447,355.549H272.242c-9.691,0-17.64-7.944-17.64-17.664
	c0-9.704,7.949-17.657,17.64-17.657h194.203c9.697,0,17.642,7.945,17.642,17.657C484.087,347.613,476.135,355.549,466.447,355.549z
	 M467.727,311.417H270.973l-34.309-88.279h265.411L467.727,311.417z M228.163,846.26h282.416c9.75,0,17.701,7.943,17.701,17.641
	c0,9.695-7.95,17.639-17.701,17.639H228.163c-9.734,0-17.672-7.943-17.672-17.639C210.49,854.203,218.435,846.26,228.163,846.26z
	 M201.662,961c-19.394,0-35.286-15.889-35.286-35.28c0-19.471,15.892-35.359,35.286-35.359h335.376
	c19.391,0,35.271,15.889,35.271,35.359c0,19.392-15.88,35.28-35.271,35.28H201.662z M822.376,961H559.584
	c12.757-6.626,21.475-19.95,21.475-35.32c0-15.344-8.689-28.65-21.411-35.289h262.729c19.383,0,35.249,15.882,35.249,35.346
	C857.625,945.119,841.759,961,822.376,961z"/>
</svg>
