<?xml version="1.0" encoding="utf-8"?>
<!-- Generator: Adobe Illustrator 16.0.0, SVG Export Plug-In . SVG Version: 6.00 Build 0)  -->
<!DOCTYPE svg PUBLIC "-//W3C//DTD SVG 1.1//EN" "http://www.w3.org/Graphics/SVG/1.1/DTD/svg11.dtd">
<svg version="1.1" id="NGS_CheckMate" xmlns="http://www.w3.org/2000/svg" xmlns:xlink="http://www.w3.org/1999/xlink" x="0px"
	 y="0px" width="1024px" height="1024px" viewBox="0 0 1024 1024" enable-background="new 0 0 1024 1024" xml:space="preserve">
<title>NGS CheckMate</title>
<desc>
Created by Fritz Lekschas (2016). It is composed of DNA by Irene Hoffman, King by Yuri Mazursky, and Queen by Yuri Mazursky.
</desc>
<g id="King">
	<g id="DNA_king">
		<desc>Created by Irene Hoffman (CC BY 3.0 US) - https://thenounproject.com/term/dna/57369/</desc>
		<path id="DNA_king_1_" d="M726.273,378.396c-8.675-4.906-21.405-11.249-36.756-16.359c9.657-4.433,21.588-10.908,32.536-19.597
			h42.867c-8.584,12.24-20.297,23.525-35.028,33.551C728.711,376.822,727.512,377.613,726.273,378.396z M737.188,847.513
			c-14.715-10.866-29.336-18.241-40.157-22.925c-5.511-2.465-12.222-5.402-21.17-9.157c-0.183-0.062-0.347-0.117-0.527-0.163
			c-1.346-0.563-17.312-7.075-35.082-19.479c-0.582-0.4-1.128-0.818-1.69-1.201c-0.109-0.091-0.183-0.145-0.291-0.199
			c-4.603-3.273-9.239-6.912-13.731-10.912h0.163c-7.656-6.885-14.913-14.877-20.732-23.962h-0.219
			c-6.766-10.503-11.457-22.497-12.586-35.945l170.449-0.037c-1.272,13.531-5.838,25.489-12.439,35.947l-130.164,0.036
			c7.365,9.447,16.404,17.433,25.243,23.962l84.242-0.027c-12.167,10.885-25.571,19.005-36.392,24.543
			c17.112,6.365,31.354,14.268,41.047,20.369c1.347-0.974,2.711-1.964,4.074-2.992c38.975-29.688,58.907-67.892,58.034-110.195
			c-0.891-43.221-21.624-79.795-59.652-106.267c-7.239-5.038-14.459-9.229-21.151-12.686c-10.566-5.865-25.117-13.249-41.395-17.807
			c-0.163-0.035-0.31-0.117-0.474-0.172c-1.309-0.481-16.404-6.275-33.154-17.414c-0.546-0.354-1.073-0.69-1.618-1.055
			c-0.072-0.064-0.164-0.128-0.236-0.191c-4.365-2.919-8.748-6.166-12.986-9.738h0.128c-7.237-6.156-14.095-13.295-19.587-21.426
			h-0.219c-6.384-9.42-10.821-20.146-11.896-32.158l161.246-0.019c-1.198,12.099-5.602,22.812-11.819,32.177H619.354
			c6.966,8.439,15.531,15.614,23.896,21.426l79.642-0.01c-11.549,9.712-24.226,16.959-34.464,21.906
			c16.224,5.692,29.626,12.74,38.756,18.178c1.328-0.846,2.603-1.755,3.838-2.664c36.92-26.489,55.834-60.653,55.089-98.496
			c-0.745-38.685-21.479-70.866-56.452-95.747c-4.492-3.192-9.075-6.015-13.586-8.512c0.035,0,0.035,0,0.055-0.018
			c-0.582-0.305-1.218-0.623-1.782-0.932c-6.875-3.674-13.477-6.57-19.078-8.743c-6.237-2.483-13.075-4.852-20.368-6.789
			c-0.146-0.045-0.291-0.091-0.455-0.136c-1.22-0.45-15.531-5.666-31.465-15.664c-0.49-0.318-0.98-0.632-1.509-0.95
			c-0.055-0.055-0.146-0.123-0.235-0.168c-4.074-2.605-8.203-5.493-12.168-8.662h-43.449c13.295,18.824,32.229,32.687,48.852,42.194
			c-0.037,0.019-0.073,0.027-0.128,0.055c10.948,6.093,25.062,13.008,40.157,18.001c8.675,2.869,16.896,6.379,24.534,10.385
			c0.163,0.073,0.291,0.146,0.437,0.223c0.219,0.1,0.4,0.205,0.582,0.305c4.583,2.414,9.402,5.197,14.204,8.43
			c0.854,0.568,1.618,1.164,2.455,1.741l0.399,0.391c8.584,6.185,15.351,12.253,21.225,19.524l0.255,0.382
			c2.946,3.737,5.475,7.593,7.603,11.594c2.946,5.329,5.074,10.776,6.257,16.241c0.272,1.155,0.581,2.328,0.781,3.501
			l-158.882,0.009c2.4-11.303,7.457-21.761,15.168-31.317l114.469-0.01c-7.256-7.475-16.403-14.403-26.916-20.314h-65.291
			c0.837-0.577,1.637-1.164,2.474-1.732c9.075-6.024,18.133-10.553,25.698-13.781c-14.04-5.497-26.59-12.076-36.12-17.637
			c-1.545,0.941-3.092,1.9-4.638,2.905c-36.375,23.743-56.544,56.589-57.979,95.259c-2.51,67.516,59.436,104.972,90.188,119.321
			c7.984,3.981,16.715,7.855,25.808,11.03c9.131,3.183,17.842,7.093,25.897,11.558c0.164,0.1,0.273,0.173,0.455,0.236
			c0.2,0.127,0.418,0.209,0.638,0.337c4.838,2.69,9.948,5.802,14.985,9.43c0.892,0.591,1.746,1.271,2.602,1.901l0.291,0.235
			c9.111,6.894,16.423,14.158,22.644,22.271l0.236,0.173c3.092,4.119,5.765,8.438,8.002,12.895
			c3.146,5.956,5.401,12.021,6.639,18.133c0.31,1.292,0.617,2.602,0.854,3.93l-167.902,0.035
			c2.547-12.631,7.894-24.315,16.06-34.955l120.891-0.036c-7.657-8.349-17.333-16.05-28.445-22.679l-68.946,0.018
			c0.873-0.637,1.71-1.291,2.618-1.91c9.55-6.747,19.15-11.785,27.1-15.367c-14.804-6.147-28.062-13.459-38.12-19.643
			c-1.637,1.055-3.256,2.109-4.874,3.237c-38.411,26.479-59.745,63.072-61.31,106.284c-2.183,60.674,39.795,99.747,73.35,121.091
			c-0.127,0.071-0.236,0.146-0.346,0.199c12.202,7.603,27.952,16.224,44.83,22.442c9.677,3.565,18.879,7.957,27.428,12.958
			c0.163,0.101,0.291,0.174,0.473,0.282c0.199,0.136,0.454,0.245,0.672,0.398c5.021,2.901,10.276,6.32,15.551,10.259l53.197-0.019
			C763.194,869.791,751.354,857.925,737.188,847.513z M613.66,847.549c-14.332,10.43-26.354,22.297-36.064,35.348l53.215-0.01
			c9.968-7.401,20.023-12.959,28.354-16.969c-15.659-6.855-29.699-15.059-40.339-21.971
			C617.098,845.076,615.388,846.275,613.66,847.549z"/>
	</g>
	<g id="Chess_piece_king">
		<desc>Created by Yuri Mazursky (CC BY 3.0 US) - https://thenounproject.com/term/king/224748/</desc>
		<path d="M540.605,913.078c0,8.248-3.974,15.568-10.11,20.15H836.47c11.149,0,20.242-9.075,20.242-20.15
			c0-11.076-9.093-20.151-20.242-20.151H530.494C536.632,897.509,540.605,904.829,540.605,913.078z"/>
		<path d="M866.715,943.304H566.454c14.54,7.587,24.471,22.794,24.471,40.331c0,17.564-9.964,32.792-24.543,40.366h300.333
			c22.152,0,40.285-18.15,40.285-40.303C907,961.455,888.867,943.304,866.715,943.304z"/>
		<path d="M806.225,312.176c0,11.112-9.094,20.179-20.149,20.179H564.229c-11.075,0-20.151-9.076-20.151-20.179
			c0-11.081,9.076-20.165,20.151-20.165h221.847C797.131,292.011,806.225,301.087,806.225,312.176z"/>
		<polygon points="766.686,281.945 797.986,181.248 552.334,181.248 583.633,281.945 		"/>
		<polygon points="542.949,151.039 549.205,171.181 801.133,171.181 807.389,151.039 695.502,108.427 695.502,60.417
			715.835,60.417 715.835,20.133 695.502,20.133 695.502,0 654.817,0 654.817,20.133 634.484,20.133 634.484,60.417 654.817,60.417
			654.817,108.427 		"/>
	</g>
</g>
<g id="Queen">
	<g id="DNA_queen">
		<desc>Created by Irene Hoffman (CC BY 3.0 US) - https://thenounproject.com/term/dna/57369/</desc>
		<path id="DNA_queen" d="M400.113,378.116c-8.67-4.913-21.406-11.254-36.772-16.367c9.662-4.439,21.598-10.917,32.551-19.605
			h42.896c-8.598,12.246-20.315,23.535-35.053,33.561C402.551,376.542,401.351,377.333,400.113,378.116z M411.049,847.436
			c-14.738-10.87-29.35-18.249-40.175-22.935c-5.513-2.466-12.246-5.403-21.192-9.16c-0.169-0.063-0.347-0.118-0.522-0.164
			c-1.344-0.563-17.327-7.078-35.104-19.486c-0.569-0.4-1.119-0.818-1.684-1.2c-0.113-0.091-0.177-0.146-0.291-0.2
			c-4.603-3.275-9.242-6.914-13.741-10.917h0.159c-7.646-6.888-14.915-14.884-20.738-23.973h-0.223
			c-6.754-10.508-11.449-22.508-12.585-35.963l170.531-0.035c-1.274,13.537-5.842,25.501-12.445,35.962L292.817,759.4
			c7.359,9.451,16.412,17.439,25.256,23.973l84.278-0.027c-12.173,10.891-25.592,19.015-36.409,24.555
			c17.123,6.367,31.369,14.273,41.066,20.379c1.328-0.975,2.703-1.967,4.076-2.993c38.982-29.704,58.915-67.922,58.051-110.243
			c-0.892-43.239-21.644-79.83-59.688-106.312c-7.224-5.041-14.456-9.235-21.151-12.692c-10.58-5.867-25.127-13.254-41.402-17.812
			c-0.174-0.036-0.322-0.117-0.483-0.173c-1.305-0.482-16.406-6.276-33.173-17.423c-0.532-0.354-1.069-0.689-1.619-1.055
			c-0.061-0.063-0.16-0.127-0.224-0.191c-4.38-2.92-8.761-6.169-13.009-9.744h0.141c-7.236-6.156-14.102-13.3-19.601-21.433h-0.224
			c-6.371-9.425-10.816-20.16-11.894-32.178l161.324-0.019c-1.218,12.109-5.613,22.816-11.835,32.188l-123.135,0.01
			c6.955,8.442,15.53,15.62,23.903,21.434l79.681-0.009c-11.562,9.716-24.244,16.966-34.479,21.917
			c16.211,5.693,29.64,12.743,38.774,18.186c1.319-0.847,2.583-1.756,3.819-2.666c36.937-26.501,55.878-60.681,55.132-98.543
			c-0.746-38.701-21.488-70.897-56.478-95.788c-4.512-3.193-9.079-6.013-13.591-8.515c0.027,0,0.027,0,0.045-0.018
			c-0.573-0.301-1.21-0.619-1.773-0.929c-6.879-3.675-13.483-6.577-19.105-8.751c-6.241-2.484-13.064-4.849-20.369-6.787
			c-0.15-0.046-0.291-0.091-0.455-0.137c-1.224-0.455-15.544-5.667-31.472-15.675c-0.502-0.318-0.988-0.627-1.516-0.946
			c-0.059-0.054-0.15-0.127-0.237-0.173c-4.079-2.602-8.195-5.495-12.163-8.661h-43.476c13.299,18.832,32.25,32.696,48.866,42.212
			c-0.035,0.019-0.062,0.027-0.117,0.055c10.952,6.095,25.067,13.009,40.169,18.004c8.67,2.875,16.894,6.386,24.545,10.389
			c0.155,0.072,0.292,0.146,0.437,0.228c0.218,0.1,0.392,0.2,0.583,0.3c4.593,2.42,9.416,5.204,14.219,8.435
			c0.855,0.572,1.619,1.163,2.438,1.746l0.399,0.392c8.598,6.187,15.375,12.254,21.252,19.532l0.246,0.382
			c2.938,3.739,5.478,7.597,7.615,11.599c2.946,5.331,5.065,10.78,6.258,16.249c0.257,1.155,0.563,2.328,0.783,3.502l-158.956,0.01
			c2.401-11.309,7.461-21.771,15.175-31.332l114.523-0.009c-7.261-7.479-16.421-14.411-26.938-20.324h-65.311
			c0.827-0.583,1.637-1.165,2.465-1.737c9.083-6.022,18.148-10.553,25.705-13.783c-14.042-5.504-26.597-12.082-36.136-17.649
			c-1.545,0.946-3.084,1.901-4.63,2.911c-36.39,23.753-56.578,56.613-58.011,95.296c-2.46,67.549,59.498,105.031,90.271,119.387
			c7.992,3.983,16.722,7.859,25.814,11.024c9.142,3.202,17.849,7.098,25.918,11.572c0.164,0.091,0.274,0.165,0.455,0.237
			c0.2,0.126,0.418,0.218,0.618,0.346c4.85,2.693,9.961,5.785,15.002,9.424c0.883,0.603,1.756,1.273,2.611,1.902l0.292,0.227
			c9.105,6.915,16.42,14.175,22.643,22.29l0.229,0.182c3.093,4.111,5.786,8.435,8.014,12.899c3.158,5.95,5.414,12.027,6.651,18.142
			c0.3,1.292,0.609,2.594,0.854,3.91L266.38,700.13c2.553-12.627,7.897-24.317,16.058-34.971l120.933-0.02
			c-7.651-8.358-17.321-16.065-28.456-22.696l-68.965,0.018c0.88-0.628,1.715-1.301,2.621-1.91
			c9.558-6.759,19.154-11.779,27.119-15.384c-14.824-6.15-28.089-13.464-38.15-19.642c-1.628,1.046-3.262,2.109-4.871,3.238
			c-38.429,26.481-59.78,63.092-61.335,106.33c-2.18,60.689,39.814,99.79,73.38,121.144c-0.132,0.062-0.232,0.138-0.354,0.19
			c12.223,7.623,27.965,16.247,44.863,22.472c9.67,3.565,18.886,7.95,27.438,12.954c0.165,0.101,0.272,0.183,0.473,0.291
			c0.2,0.127,0.445,0.236,0.665,0.382c5.021,2.911,10.289,6.332,15.565,10.271l53.22-0.019
			C437.066,869.726,425.214,857.852,411.049,847.436z M287.459,847.472c-14.338,10.438-26.372,22.31-36.09,35.362l53.229-0.01
			c9.989-7.403,20.042-12.963,28.371-16.976c-15.661-6.858-29.699-15.064-40.356-21.979
			C290.898,844.998,289.184,846.198,287.459,847.472z"/>
	</g>
	<g id="Chess_piece_queen">
		<desc>Created by Yuri Mazursky (CC BY 3.0 US) - https://thenounproject.com/term/queen/224753/</desc>
		<path d="M187.614,933.188h322.761c11.145,0,20.23-9.078,20.23-20.159s-9.088-20.16-20.23-20.16H187.614
			c-11.117,0-20.196,9.079-20.196,20.16S176.489,933.188,187.614,933.188z"/>
		<path d="M540.615,943.269H157.328c-22.165,0-40.328,18.159-40.328,40.411c0,22.161,18.163,40.32,40.328,40.32h383.287
			c22.161,0,40.31-18.159,40.31-40.32C580.925,961.428,562.776,943.269,540.615,943.269z"/>
		<path d="M480.1,311.869c0,11.117-9.089,20.187-20.16,20.187H237.991c-11.076,0-20.16-9.079-20.16-20.187
			c0-11.09,9.084-20.179,20.16-20.179h221.946C471.02,291.69,480.1,300.769,480.1,311.869z"/>
		<polygon points="197.331,180.729 236.541,281.619 461.402,281.619 500.658,180.729 		"/>
		<path d="M504.588,170.648l24.618-63.3l-37.718-14.62l-13.684,35.316c-18.632-8.925-56.877-15.575-103.056-17.386
			c8.859-7.387,14.556-18.358,14.556-30.785c0-22.28-18.058-40.365-40.333-40.365c-22.276,0-40.366,18.085-40.366,40.365
			c0,12.427,5.731,23.398,14.578,30.785c-46.178,1.811-84.42,8.47-103.077,17.386l-13.742-35.315l-37.587,14.62l24.622,63.3
			L504.588,170.648L504.588,170.648z"/>
	</g>
</g>
</svg>
